<svg xmlns="http://www.w3.org/2000/svg" viewBox="0 0 15.97 16.03"><defs><style>.a{fill:#f6f7f7;}</style></defs><title>icon_phone</title><path class="a" d="M15.63,12.65l-2.46-2.48a1.29,1.29,0,0,0-1.82,0l-1.24,1.25-.24-.14A11.67,11.67,0,0,1,4.71,6.13l-.14-.24.84-.84.41-.41a1.3,1.3,0,0,0,0-1.83L3.38.33a1.28,1.28,0,0,0-1.8,0h0l-.69.7v0a4.37,4.37,0,0,0-.57,1,4.05,4.05,0,0,0-.25,1C-.26,5.85,1,8.34,4.32,11.7,9,16.36,12.69,16,12.85,16a4.1,4.1,0,0,0,1-.26,3.81,3.81,0,0,0,1-.57h0l.7-.69A1.3,1.3,0,0,0,15.63,12.65Z" transform="translate(-0.02 0.03)"/></svg>