<svg xmlns="http://www.w3.org/2000/svg" viewBox="0 0 88 33"><defs><style>.a{fill:#c9acc4;}</style></defs><title>logo_studio-logo</title><path class="a" d="M86.38,1.62V31.38H1.62V1.62H86.38M88,0H0V33H88Z"/><path class="a" d="M58.3,7.4c-3-.13-6.15-.48-9.06.33A9.28,9.28,0,0,0,49,25.64c3,.89,6.25.53,9.29.39,2.77-.12,2.78-4.44,0-4.32-4.12.18-11.73,1.17-11.7-5s7.54-5.18,11.7-5c2.78.12,2.77-4.2,0-4.32Z"/><path class="a" d="M78.55,7.4c-3-.13-6.15-.48-9.06.33a9.28,9.28,0,0,0-.23,17.91c3,.89,6.25.53,9.29.39,2.77-.12,2.78-4.44,0-4.32-4.12.18-11.73,1.17-11.7-5s7.54-5.18,11.7-5c2.78.12,2.77-4.2,0-4.32Z"/><path class="a" d="M35.31,9.43c0,5.05.69,12.42-6.31,12.42-2.78,0-2.78,4.32,0,4.32h0c2.78,0,2.78-4.32,0-4.32H27.52c-2.78,0-2.78,4.32,0,4.32H29c2.78,0,2.78-4.32,0-4.32h0c-2.78,0-2.78,4.32,0,4.32,4.56,0,8.16-2.21,9.77-6.61,1.17-3.18.86-6.8.86-10.13C39.63,6.65,35.31,6.65,35.31,9.43Z"/><path class="a" d="M7.29,9.43c0,3.22-.25,6.63.75,9.74,1.32,4.1,5,7.26,9.47,7,9-.6,8.77-10,8.77-16.71,0-2.78-4.32-2.78-4.32,0,0,3.92,1.17,11.6-4.29,12.36-6.71.94-6.06-8.14-6.06-12.36,0-2.78-4.32-2.78-4.32,0Z"/></svg>