<svg xmlns="http://www.w3.org/2000/svg" viewBox="0 0 256.22 60.41"><defs><style>.a{fill:#fff;}</style></defs><title>logo</title><path class="a" d="M16.77,0C27.94,0,33.53,7.84,33.53,16.4S27.94,32.81,16.77,32.81,0,25,0,16.4,5.59,0,16.77,0m0,6.26c-6.58,0-9.87,4.6-9.87,10.14s3.29,10.14,9.87,10.14S26.59,22,26.59,16.4,23.3,6.26,16.77,6.26Z" transform="translate(0 0)"/><path class="a" d="M44.57,32.18V.63h13C63.7.63,70.1,2.93,70.1,10.91c0,5.4-3.06,8.15-6.89,9.37l9.42,11.9h-7.8l-8.52-11h-5v11ZM51.33,15.5h6.54c2.84,0,5.32-1.26,5.32-4.46s-2.48-4.46-5.32-4.46H51.33Z" transform="translate(0 0)"/><rect class="a" x="82.43" y="0.63" width="6.76" height="31.55"/><path class="a" d="M117.45,0a24.13,24.13,0,0,1,9.69,2V8.47A16.34,16.34,0,0,0,118.35,6c-5.63,0-11.17,3-11.17,10.37,0,8.38,6.17,10.5,10.81,10.5a10,10,0,0,0,3.47-.59V15.05h6.44V30.69a26.66,26.66,0,0,1-10.27,2.12c-8.83,0-17.35-4.82-17.35-16.4S108.8,0,117.45,0" transform="translate(0 0)"/><rect class="a" x="139.67" y="0.63" width="6.76" height="31.55"/><polygon class="a" points="182.53 0.63 182.53 6.72 172.84 6.72 172.84 32.18 166.13 32.18 166.13 6.72 156.44 6.72 156.44 0.63 182.53 0.63"/><polygon class="a" points="214.75 0.63 214.75 6.58 199.3 6.58 199.3 13.29 213.4 13.29 213.4 19.2 199.3 19.2 199.3 26.23 215.03 26.23 215.03 32.18 192.54 32.18 192.54 0.63 214.75 0.63"/><path class="a" d="M223.18,32.18,236.07.63h7.3l12.85,31.55h-7l-2.3-5.91H232.51l-2.34,5.91Zm11.45-11.49h10.19L240.4,9.37a14.12,14.12,0,0,1-.68-2.47A10.61,10.61,0,0,1,239,9.37Z" transform="translate(0 0)"/><path class="a" d="M81.75,51.75A3.59,3.59,0,0,0,84,48.28c0-2.65-2-4.16-5.52-4.16H72.4l-.23.23V60l.23.23h6.12c2.27,0,6.08-.58,6.11-4.47a4,4,0,0,0-2.88-4m-7.78,1h5c2.59,0,3.9,1,3.9,2.89,0,2.39-1.81,2.88-4.54,2.88H74Zm0-6.86h4.42c2.6,0,3.81.83,3.81,2.61C82.2,50.75,80,51,79,51H74Z" transform="translate(0 0)"/><polygon class="a" points="94.16 58.48 94.16 52.98 102.33 52.98 102.56 52.74 102.56 51.47 102.33 51.24 94.16 51.24 94.16 45.85 103 45.85 103.23 45.62 103.23 44.35 103 44.12 92.61 44.12 92.38 44.35 92.38 59.98 92.61 60.21 103.16 60.21 103.39 59.98 103.39 58.71 103.16 58.48 94.16 58.48"/><path class="a" d="M118,44.11h-1.5l-.21.14-7,15.64.21.32h1.43l.22-.13L113,56h8.52l1.8,4.06.21.14H125l.21-.32-7-15.64Zm2.77,10.19h-7.06l3.53-8Z" transform="translate(0 0)"/><path class="a" d="M143.13,44.12l-.23.23v10c0,2.92-1.63,4.39-4.84,4.39s-4.86-1.47-4.86-4.39v-10l-.23-.23h-1.32l-.23.23v10c0,3.91,2.35,6.06,6.64,6.06s6.62-2.15,6.62-6.06v-10l-.23-.23Z" transform="translate(0 0)"/><polygon class="a" points="151.68 44.12 151.45 44.35 151.45 45.62 151.68 45.85 157.17 45.85 157.17 59.98 157.4 60.21 158.72 60.21 158.95 59.98 158.95 45.85 164.43 45.85 164.66 45.62 164.66 44.35 164.43 44.12 151.68 44.12"/><polygon class="a" points="183.68 44.12 182.21 44.12 182.01 44.22 176.87 52.25 171.73 44.22 171.53 44.12 170.06 44.12 169.87 44.47 175.97 53.95 175.97 59.98 176.2 60.21 177.54 60.21 177.78 59.98 177.78 53.95 183.88 44.47 183.68 44.12"/></svg>